# xmcd
#
# Track frame offsets: 
#        150
#        18119
#        37849
#        52880
#        74323
#        97533
#        116634
#        130152
#        150360
#        166896
#        183142
#
# Disc length: 2579 seconds
#
# Revision: 1
# Processed by: cddbd v1.5.2PL0 Copyright (c) Steve Scherf et al.
# Submitted via: ExactAudioCopyFreeDBPlugin 1.0
#
DISCID=700a110b
DTITLE=Lucky Peterson - Travelin' Man
DYEAR=2012
DGENRE=Blues
TTITLE0=Proud To Love My Baby
TTITLE1=Feeling They Call The Blues
TTITLE2=Trouble Everywhere
TTITLE3=I'm Free
TTITLE4=Get on Down
TTITLE5=Get Off Me Baby
TTITLE6=Traveling Man
TTITLE7=Treat Me Like You Wanna
TTITLE8=What Have I Done Wrong
TTITLE9=Wish You Well
TTITLE10=The Day After
EXTD=
EXTT0=
EXTT1=
EXTT2=
EXTT3=
EXTT4=
EXTT5=
EXTT6=
EXTT7=
EXTT8=
EXTT9=
EXTT10=
PLAYORDER=
